<svg xmlns="http://www.w3.org/2000/svg" viewBox="0 0 65 24"><path fill="#4e5256" fill-rule="evenodd" d="M1.45 1.8h2.12c.09 0 .16.02.2.06.04.04.06.08.06.14 0 .06-.02.1-.06.14-.04.04-.11.06-.2.06H1.45v2.59c0 .22.1.41.28.56.18.15.44.23.8.23a3.43 3.43 0 0 0 1.56-.39.3.3 0 0 1 .15-.06c.05 0 .1.02.13.06a.18.18 0 0 1 0 .27 3.68 3.68 0 0 1-1.82.51c-.46 0-.82-.1-1.09-.32-.26-.22-.4-.5-.4-.86v-2.6H.34c-.09 0-.16-.01-.2-.05A.19.19 0 0 1 .08 2c0-.06.02-.1.06-.14.04-.04.11-.06.2-.06h.72V.65c0-.09.02-.16.06-.2A.18.18 0 0 1 1.26.4c.05 0 .1.02.14.06.04.04.05.11.05.2V1.8zM7 0v2.4c.25-.27.48-.46.71-.57.23-.11.48-.17.76-.17.3 0 .56.06.77.16.22.11.4.27.53.5.15.22.22.45.22.7v2.4h.43c.1 0 .17.02.2.06.04.03.06.08.06.14 0 .06-.02.1-.05.14-.04.04-.11.05-.2.05H9.15c-.1 0-.17-.01-.2-.05a.18.18 0 0 1-.07-.14c0-.06.02-.1.06-.14.04-.04.11-.05.2-.05h.44v-2.4c0-.27-.1-.5-.3-.7a1.2 1.2 0 0 0-.84-.28c-.29 0-.53.07-.73.21-.15.1-.39.33-.72.7v2.47h.44c.1 0 .16.01.2.05.04.03.06.08.06.14 0 .06-.02.1-.06.14-.04.04-.1.05-.2.05H6.17c-.1 0-.16-.01-.2-.05a.18.18 0 0 1-.06-.14c0-.06.02-.1.06-.14.04-.04.1-.05.2-.05h.44V.39h-.52c-.1 0-.16-.01-.2-.05a.19.19 0 0 1-.06-.15c0-.05.02-.1.06-.13.04-.04.1-.06.2-.06h.9zm9.41 3.9h-3.96c.06.5.28.91.63 1.22.35.3.8.46 1.31.46a3.17 3.17 0 0 0 1.7-.53c.05-.04.1-.06.15-.06.05 0 .09.01.13.05a.2.2 0 0 1 .05.14c0 .05-.02.1-.07.15-.15.16-.41.3-.8.44-.37.13-.76.2-1.16.2a2.3 2.3 0 0 1-1.67-.66 2.14 2.14 0 0 1-.67-1.58c0-.57.21-1.06.63-1.46.42-.4.94-.6 1.56-.6.63 0 1.16.2 1.57.62.4.41.6.95.6 1.61zm-.4-.4a1.7 1.7 0 0 0-.6-1.04 1.8 1.8 0 0 0-1.17-.4c-.46 0-.85.13-1.18.4a1.7 1.7 0 0 0-.6 1.05h3.56zM4.37 12.93H.39c.07.5.28.9.64 1.21.35.3.79.46 1.31.46a3.17 3.17 0 0 0 1.7-.52c.05-.05.1-.07.14-.07.05 0 .1.02.13.06a.2.2 0 0 1 .06.13c0 .06-.03.1-.07.16a3.46 3.46 0 0 1-1.96.63 2.3 2.3 0 0 1-1.67-.65A2.14 2.14 0 0 1 0 12.74c0-.57.2-1.05.63-1.46.42-.4.93-.6 1.55-.6.64 0 1.16.2 1.57.62.41.42.62.95.61 1.62zm-.4-.4a1.7 1.7 0 0 0-.6-1.05 1.8 1.8 0 0 0-1.18-.4c-.45 0-.84.13-1.17.4a1.7 1.7 0 0 0-.61 1.05h3.57zm3.06-1.7v.59c.27-.28.52-.47.74-.57.22-.11.47-.16.74-.16.3 0 .57.06.81.19.17.1.33.24.47.46.14.21.21.43.21.66v2.45h.33c.1 0 .16.02.2.05.04.04.06.09.06.14 0 .06-.02.1-.06.14-.04.04-.1.06-.2.06H9.28c-.1 0-.16-.02-.2-.06a.18.18 0 0 1-.07-.14c0-.05.03-.1.07-.14.04-.03.1-.05.2-.05h.32v-2.39c0-.27-.1-.5-.3-.7-.2-.18-.47-.28-.8-.28-.26 0-.48.05-.67.16-.19.1-.46.36-.8.77v2.44h.43c.1 0 .16.02.2.05.04.04.06.09.06.14 0 .06-.02.1-.06.14-.04.04-.1.06-.2.06H6.2c-.09 0-.16-.02-.2-.06a.18.18 0 0 1-.06-.14c0-.05.02-.1.06-.14.04-.03.11-.05.2-.05h.44v-3.23H6.3c-.09 0-.15-.02-.2-.05a.19.19 0 0 1-.05-.15c0-.05.02-.1.06-.14.04-.03.1-.05.2-.05h.71zm8.6.71v-.71h.9c.1 0 .17.02.2.05.05.04.07.09.07.15 0 .05-.02.1-.06.14-.04.03-.1.05-.2.05H16v3.89c0 .26-.06.49-.17.7-.08.13-.2.27-.37.41-.18.15-.33.25-.47.32-.15.06-.34.09-.57.09h-1.1c-.1 0-.17-.02-.2-.06a.18.18 0 0 1-.07-.14c0-.06.02-.1.06-.14.04-.04.11-.06.2-.06h1.12c.23 0 .43-.05.62-.17.18-.11.33-.29.45-.51.07-.13.1-.3.1-.5v-1.17a1.91 1.91 0 0 1-2.99.27c-.39-.4-.58-.88-.58-1.44 0-.56.2-1.03.58-1.43a1.92 1.92 0 0 1 3 .26zm0 1.17c0-.45-.16-.84-.47-1.16a1.53 1.53 0 0 0-1.13-.47c-.43 0-.8.16-1.12.48-.31.31-.47.7-.47 1.15 0 .46.16.85.47 1.16.31.32.69.48 1.12.48.44 0 .81-.16 1.13-.48.3-.31.47-.7.47-1.16zm4.9-3.88v1h-.57v-1h.58zm.02 2v3.62h1.53c.1 0 .16.02.2.05.04.04.06.09.06.14 0 .06-.02.1-.06.14-.04.04-.1.06-.2.06h-3.45c-.1 0-.16-.02-.2-.06a.18.18 0 0 1-.06-.14c0-.05.02-.1.06-.14.04-.03.1-.05.2-.05h1.53v-3.23h-1.13c-.1 0-.16-.02-.2-.05a.18.18 0 0 1-.07-.14c0-.06.02-.11.06-.15.04-.03.11-.05.2-.05h1.53zm4.56 0v.59c.27-.28.52-.47.74-.57.22-.11.47-.16.74-.16.3 0 .57.06.81.19.17.1.33.24.47.46.14.21.21.43.21.66v2.45h.33c.1 0 .16.02.2.05.04.04.06.09.06.14 0 .06-.02.1-.06.14-.04.04-.1.06-.2.06h-1.04c-.1 0-.17-.02-.2-.06a.18.18 0 0 1-.07-.14c0-.05.02-.1.06-.14.04-.03.11-.05.2-.05h.33v-2.39c0-.27-.1-.5-.3-.7-.2-.18-.47-.28-.8-.28-.26 0-.48.05-.67.16-.19.1-.46.36-.8.77v2.44h.43c.1 0 .16.02.2.05.04.04.06.09.06.14 0 .06-.02.1-.06.14-.04.04-.1.06-.2.06h-1.27c-.09 0-.16-.02-.2-.06a.18.18 0 0 1-.06-.14c0-.05.02-.1.06-.14.04-.03.11-.05.2-.05h.44v-3.23h-.33c-.09 0-.16-.02-.2-.05a.19.19 0 0 1-.06-.15c0-.05.02-.1.06-.14.04-.03.11-.05.2-.05h.72zm9.4 2.1h-3.97c.06.5.27.9.63 1.21.35.3.79.46 1.31.46a3.17 3.17 0 0 0 1.7-.52c.05-.05.1-.07.15-.07.05 0 .09.02.13.06a.2.2 0 0 1 .05.13c0 .06-.02.1-.07.16a3.46 3.46 0 0 1-1.96.63 2.3 2.3 0 0 1-1.67-.65 2.14 2.14 0 0 1-.67-1.59c0-.57.21-1.05.63-1.46.42-.4.94-.6 1.55-.6.64 0 1.16.2 1.58.62.4.42.6.95.6 1.62zm-.4-.4a1.7 1.7 0 0 0-.61-1.05 1.8 1.8 0 0 0-1.18-.4c-.45 0-.84.13-1.17.4a1.7 1.7 0 0 0-.6 1.05h3.56zm6.42.4h-3.97c.07.5.28.9.64 1.21.35.3.79.46 1.3.46a3.17 3.17 0 0 0 1.7-.52c.06-.05.1-.07.15-.07.05 0 .1.02.13.06a.2.2 0 0 1 .06.13c0 .06-.03.1-.08.16-.14.15-.4.3-.79.43-.37.14-.76.2-1.16.2a2.3 2.3 0 0 1-1.67-.65 2.14 2.14 0 0 1-.67-1.59c0-.57.2-1.05.63-1.46.42-.4.93-.6 1.55-.6.64 0 1.16.2 1.57.62.41.42.61.95.6 1.62zm-.4-.4a1.7 1.7 0 0 0-.6-1.05 1.8 1.8 0 0 0-1.18-.4c-.45 0-.84.13-1.17.4a1.7 1.7 0 0 0-.61 1.05h3.56zm3.85-1.7v.98c.51-.46.89-.75 1.14-.88.25-.13.49-.2.7-.2.23 0 .45.08.64.23.2.16.3.28.3.36a.2.2 0 0 1-.2.2l-.08-.01a.66.66 0 0 1-.12-.1c-.1-.12-.2-.2-.28-.23a.53.53 0 0 0-.24-.06c-.17 0-.37.07-.61.2-.24.14-.66.47-1.25 1v2.13h1.73c.1 0 .16.02.2.05.04.04.06.09.06.14 0 .06-.02.1-.06.14-.04.04-.1.06-.2.06h-3.06c-.09 0-.16-.02-.2-.05a.17.17 0 0 1-.06-.14c0-.05.02-.1.06-.13.04-.04.1-.06.2-.06h.94v-3.24h-.71c-.1 0-.16-.02-.2-.05a.19.19 0 0 1-.06-.15c0-.05.02-.1.05-.14.04-.03.11-.05.2-.05h1.11zm6.69-2v1h-.58v-1h.58zm.01 2v3.62h1.53c.1 0 .16.02.2.05.05.04.07.09.07.14 0 .06-.02.1-.07.14-.04.04-.1.06-.2.06h-3.45c-.09 0-.16-.02-.2-.06a.18.18 0 0 1-.06-.14c0-.05.02-.1.06-.14.04-.03.11-.05.2-.05h1.53v-3.23h-1.13c-.1 0-.16-.02-.2-.05a.18.18 0 0 1-.07-.14c0-.06.02-.11.06-.15.04-.03.11-.05.2-.05h1.53zm4.56 0v.59c.28-.28.52-.47.74-.57.22-.11.47-.16.74-.16.3 0 .57.06.81.19.18.1.33.24.47.46.14.21.21.43.21.66v2.45h.33c.1 0 .16.02.2.05.04.04.06.09.06.14 0 .06-.02.1-.06.14-.04.04-.1.06-.2.06H57.5c-.1 0-.16-.02-.2-.06a.18.18 0 0 1-.06-.14c0-.05.02-.1.06-.14.04-.03.1-.05.2-.05h.33v-2.39c0-.27-.1-.5-.3-.7-.2-.18-.48-.28-.81-.28-.26 0-.48.05-.67.16-.19.1-.46.36-.8.77v2.44h.43c.1 0 .16.02.2.05.04.04.06.09.06.14 0 .06-.02.1-.06.14-.04.04-.1.06-.2.06h-1.26c-.1 0-.16-.02-.2-.06a.18.18 0 0 1-.06-.14c0-.05.02-.1.06-.14.04-.03.1-.05.2-.05h.44v-3.23h-.33c-.1 0-.16-.02-.2-.05a.19.19 0 0 1-.06-.15c0-.05.02-.1.06-.14.04-.03.1-.05.2-.05h.71zm8.6.71v-.71h.91c.1 0 .16.02.2.05.04.04.06.09.06.15 0 .05-.02.1-.06.14-.04.03-.1.05-.2.05h-.52v3.89c0 .26-.06.49-.17.7-.07.13-.2.27-.37.41-.17.15-.33.25-.47.32-.15.06-.34.09-.57.09h-1.1c-.1 0-.16-.02-.2-.06a.18.18 0 0 1-.07-.14c0-.06.02-.1.07-.14.04-.04.1-.06.2-.06h1.11c.23 0 .44-.05.62-.17.18-.11.34-.29.46-.51.06-.13.1-.3.1-.5v-1.17a1.91 1.91 0 0 1-3 .27c-.39-.4-.58-.88-.58-1.44 0-.56.2-1.03.58-1.43.39-.4.85-.6 1.39-.6.65 0 1.2.3 1.6.86zm0 1.17c0-.45-.16-.84-.47-1.16a1.53 1.53 0 0 0-1.13-.47c-.43 0-.8.16-1.12.48-.3.31-.47.7-.47 1.15 0 .46.16.85.47 1.16.31.32.69.48 1.12.48.44 0 .81-.16 1.13-.48.31-.31.47-.7.47-1.16zM3.28 20.75a1.9 1.9 0 0 0-1.02-.29c-.37 0-.66.06-.87.18-.1.05-.15.11-.15.17 0 .07.07.14.2.21.1.05.32.1.66.15.63.08 1.07.17 1.31.26.33.11.58.28.76.5.17.23.26.47.26.72 0 .34-.15.62-.45.85-.43.33-.99.5-1.67.5a3.8 3.8 0 0 1-.76-.07 2.8 2.8 0 0 1-.65-.22.54.54 0 0 1-.14.1.42.42 0 0 1-.17.03.45.45 0 0 1-.35-.15c-.09-.1-.13-.26-.13-.49v-.32c0-.22.04-.39.13-.48.09-.1.2-.15.34-.15.12 0 .21.03.3.1.07.06.13.17.17.32.15.13.32.22.53.28.2.07.43.1.7.1.44 0 .77-.07 1.01-.2.12-.07.18-.15.18-.22 0-.12-.09-.23-.25-.3-.16-.09-.5-.15-1.01-.21-.77-.08-1.28-.23-1.53-.46-.26-.23-.39-.5-.39-.84 0-.34.15-.62.43-.84.4-.31.9-.47 1.53-.47a3.13 3.13 0 0 1 1.22.26.83.83 0 0 1 .16-.1l.14-.03c.13 0 .24.05.33.14.08.1.13.26.13.5v.22c0 .21-.03.35-.08.43a.47.47 0 0 1-.4.2.46.46 0 0 1-.3-.1.48.48 0 0 1-.17-.28zm4.77-.16v1.9c0 .2.04.34.12.4.13.1.36.16.7.16.48 0 .93-.1 1.34-.31a.9.9 0 0 1 .37-.12c.12 0 .23.04.32.14.1.09.14.2.14.33s-.05.23-.15.32a4.42 4.42 0 0 1-2.02.58c-.6 0-1.04-.12-1.33-.38a1.2 1.2 0 0 1-.44-.93v-2.1h-.35c-.22 0-.39-.04-.48-.13a.44.44 0 0 1-.15-.34c0-.14.05-.25.15-.34.1-.09.26-.13.48-.13h.35v-.86c0-.23.04-.4.13-.49.09-.1.2-.14.34-.14s.26.04.34.14c.1.1.14.26.14.49v.86H9.8c.23 0 .4.04.5.13.09.09.14.2.14.34s-.05.26-.15.34c-.1.1-.26.14-.49.14H8.05zm8.27-.95v3.25c.2 0 .35.05.45.14.1.09.14.2.14.34s-.05.25-.14.34c-.1.09-.26.13-.5.13h-.9v-.21c-.27.12-.53.21-.77.27-.25.07-.49.1-.7.1a1.6 1.6 0 0 1-.82-.2c-.23-.13-.4-.31-.54-.54-.1-.17-.14-.38-.14-.63v-2.04h-.17c-.22 0-.39-.05-.49-.14a.44.44 0 0 1-.14-.34c0-.14.05-.25.14-.34.1-.09.27-.13.5-.13h1.1v2.82c0 .2.05.35.15.45.1.09.25.14.45.14.19 0 .4-.04.62-.12.22-.07.5-.2.82-.4v-1.94h-.35c-.23 0-.39-.05-.49-.14a.44.44 0 0 1-.14-.34c0-.14.05-.25.14-.34.1-.09.26-.13.5-.13h1.28zm6.2-1.8v5.05h.16c.22 0 .38.05.48.14.1.08.15.2.15.34s-.05.25-.15.34c-.1.09-.26.13-.48.13h-1.12v-.23a2.81 2.81 0 0 1-1.4.39 2.4 2.4 0 0 1-1.73-.62 2.03 2.03 0 0 1-.66-1.54c0-.64.23-1.2.69-1.65a2.39 2.39 0 0 1 2.4-.57c.24.08.47.2.7.35v-1.19h-.16c-.23 0-.39-.04-.49-.13a.44.44 0 0 1-.14-.34c0-.14.05-.26.14-.34.1-.1.26-.14.5-.14h1.1zm-.96 4.03a1.38 1.38 0 0 0-1.42-1.4c-.4 0-.73.13-1 .4-.28.27-.42.6-.42.98 0 .35.13.64.37.86.25.23.6.34 1.05.34.45 0 .8-.11 1.05-.34.25-.22.37-.5.37-.84zm5.14-4.04v1.01h-1.13v-1h1.13zm.13 1.8v3.26h1.14c.23 0 .4.05.49.14.1.08.14.2.14.34s-.04.25-.14.34c-.1.09-.26.13-.49.13h-3.23c-.23 0-.4-.04-.49-.13a.44.44 0 0 1-.14-.34c0-.14.04-.26.14-.34.1-.1.26-.14.5-.14h1.13v-2.3h-.76c-.23 0-.4-.05-.5-.14a.44.44 0 0 1-.14-.34c0-.14.05-.25.15-.34.1-.09.26-.13.49-.13h1.71zm8.02 2.19c0 .36-.1.72-.3 1.06-.2.34-.5.61-.9.81a2.74 2.74 0 0 1-2.5 0 2.16 2.16 0 0 1-1.21-1.88c0-.38.1-.75.31-1.12.21-.36.51-.65.9-.86a2.59 2.59 0 0 1 2.5 0 2.26 2.26 0 0 1 1.21 1.99zm-.95 0c0-.3-.1-.58-.33-.84-.3-.35-.69-.52-1.18-.52-.43 0-.78.14-1.07.41-.29.28-.43.6-.43.96 0 .3.14.57.43.83.3.26.65.39 1.07.39.43 0 .79-.13 1.08-.39.29-.26.43-.54.43-.84z"/></svg>
